<?xml version="1.0" encoding="UTF-8" standalone="no"?>
<!DOCTYPE svg PUBLIC "-//W3C//DTD SVG 1.1//EN" "http://www.w3.org/Graphics/SVG/1.1/DTD/svg11.dtd">
<!-- Created with Vectornator (http://vectornator.io/) -->
<svg height="100%" stroke-miterlimit="10" style="fill-rule:nonzero;clip-rule:evenodd;stroke-linecap:round;stroke-linejoin:round;" version="1.1" viewBox="8.02868 7.98479 47.9646 48.1472" width="100%" xml:space="preserve" xmlns="http://www.w3.org/2000/svg" xmlns:xlink="http://www.w3.org/1999/xlink">
<defs/>
<g id="Icons1">
<g opacity="1">
<path d="M32.427 7.987C34.61 8.111 36.427 9.152 37.523 11.268L55.459 47.476C57.198 51.136 54.505 56.061 50.086 56.132L13.967 56.132C9.945 56.068 6.645 51.501 8.615 47.436L26.886 11.229C27.228 10.579 27.384 10.391 27.679 10.05C28.865 8.675 30.162 7.939 32.427 7.987ZM32.132 11.984C31.445 12.018 30.816 12.403 30.473 13.001C24.161 24.98 18.076 37.082 12.172 49.268C11.626 50.493 12.563 52.065 13.934 52.131C25.994 52.326 38.059 52.326 50.119 52.131C51.444 52.067 52.44 50.547 51.888 49.281C46.095 37.097 40.123 24.995 33.922 13.014C33.556 12.363 33.019 11.972 32.132 11.984Z" fill="#000000" fill-rule="nonzero" opacity="1" stroke="none"/>
<path d="M33.631 40.581L30.283 40.581L29.915 24.132L34.015 24.132L33.631 40.581ZM29.803 45.611C29.803 45.002 30 44.498 30.395 44.097C30.791 43.697 31.33 43.496 32.013 43.496C32.697 43.496 33.236 43.697 33.631 44.097C34.026 44.498 34.224 45.002 34.224 45.611C34.224 46.198 34.031 46.689 33.647 47.084C33.262 47.479 32.718 47.677 32.013 47.677C31.308 47.677 30.764 47.479 30.379 47.084C29.995 46.689 29.803 46.198 29.803 45.611Z" fill="#000000" fill-rule="nonzero" opacity="1" stroke="none"/>
</g>
</g>
</svg>
