<svg width="15" height="20" viewBox="0 0 15 20" fill="none" xmlns="http://www.w3.org/2000/svg">
<path d="M13.3828 5.88281C13.8711 5.39453 13.8711 4.60156 13.3828 4.11328C12.8945 3.625 12.1016 3.625 11.6133 4.11328L7.5 8.23047L3.38281 4.11719C2.89453 3.62891 2.10156 3.62891 1.61328 4.11719C1.125 4.60547 1.125 5.39844 1.61328 5.88672L5.73047 10L1.61719 14.1172C1.12891 14.6055 1.12891 15.3984 1.61719 15.8867C2.10547 16.375 2.89844 16.375 3.38672 15.8867L7.5 11.7695L11.6172 15.8828C12.1055 16.3711 12.8984 16.3711 13.3867 15.8828C13.875 15.3945 13.875 14.6016 13.3867 14.1133L9.26953 10L13.3828 5.88281Z" fill="#FFFFFF"/>
</svg>
