<svg width="20" height="23" viewBox="0 0 20 23" fill="none" xmlns="http://www.w3.org/2000/svg">
<g id="logo-utilisateur" clip-path="url(#clip0_7_11)">
<path id="Vector" d="M13.5714 5.71429C13.5714 4.76708 13.1952 3.85868 12.5254 3.1889C11.8556 2.51913 10.9472 2.14286 10 2.14286C9.0528 2.14286 8.14439 2.51913 7.47462 3.1889C6.80485 3.85868 6.42857 4.76708 6.42857 5.71429C6.42857 6.66149 6.80485 7.56989 7.47462 8.23967C8.14439 8.90944 9.0528 9.28571 10 9.28571C10.9472 9.28571 11.8556 8.90944 12.5254 8.23967C13.1952 7.56989 13.5714 6.66149 13.5714 5.71429ZM4.28571 5.71429C4.28571 4.19876 4.88775 2.74531 5.95939 1.67368C7.03103 0.602039 8.48448 0 10 0C11.5155 0 12.969 0.602039 14.0406 1.67368C15.1122 2.74531 15.7143 4.19876 15.7143 5.71429C15.7143 7.22981 15.1122 8.68326 14.0406 9.7549C12.969 10.8265 11.5155 11.4286 10 11.4286C8.48448 11.4286 7.03103 10.8265 5.95939 9.7549C4.88775 8.68326 4.28571 7.22981 4.28571 5.71429ZM2.20089 20.7143H17.7991C17.4018 17.8884 14.9732 15.7143 12.0402 15.7143H7.95982C5.02679 15.7143 2.59821 17.8884 2.20089 20.7143ZM0 21.5312C0 17.1339 3.5625 13.5714 7.95982 13.5714H12.0402C16.4375 13.5714 20 17.1339 20 21.5312C20 22.2634 19.4062 22.8571 18.6741 22.8571H1.32589C0.59375 22.8571 0 22.2634 0 21.5312Z" fill="#1E375A"/>
</g>
<defs>
<clipPath id="clip0_7_11">
<rect width="20" height="22.8571" fill="white"/>
</clipPath>
</defs>
</svg>
