<?xml version="1.0" standalone="no"?>
<svg version="1.0" xmlns="http://www.w3.org/2000/svg"
 width="103.600000pt" height="61.300000pt" viewBox="0 0 622.000000 368.000000"
 preserveAspectRatio="xMidYMid meet">
<g transform="translate(0.000000,368.000000) scale(0.100000,-0.100000)"
fill="#1E375A" stroke="none">
<path d="M2345 3665 c-330 -54 -581 -181 -811 -410 -204 -203 -348 -469 -395
-729 -14 -77 -7 -71 -134 -105 -212 -58 -436 -205 -579 -380 -296 -362 -355
-850 -151 -1267 154 -315 422 -535 775 -633 l95 -26 1980 0 1980 0 96 26 c432
120 721 411 842 849 18 64 21 103 21 265 0 175 -2 198 -27 290 -129 480 -546
823 -1041 857 l-38 3 -24 83 c-75 260 -260 467 -505 567 -192 78 -438 79 -627
4 -29 -12 -54 -20 -55 -18 -2 2 -33 42 -69 89 -207 266 -501 447 -843 520
-133 28 -365 35 -490 15z m494 -250 c312 -80 562 -261 736 -530 61 -94 72
-104 119 -112 28 -4 47 1 90 26 31 17 91 43 133 58 66 23 95 27 188 27 183 0
315 -54 446 -184 108 -107 167 -230 185 -385 8 -69 25 -110 55 -125 11 -7 74
-13 138 -15 257 -8 480 -101 648 -273 177 -179 263 -393 263 -651 0 -254 -95
-479 -277 -652 -126 -119 -238 -184 -400 -231 l-78 -23 -1950 0 c-1885 0
-1953 1 -2025 19 -536 136 -848 686 -684 1207 111 357 421 613 798 664 37 5
58 15 81 38 28 29 33 42 44 127 71 526 474 942 1002 1035 132 23 356 14 488
-20z"/>
<path d="M2129 2295 c-38 -21 -59 -58 -59 -106 0 -40 5 -47 102 -145 l102
-104 -102 -104 c-92 -93 -102 -107 -102 -140 0 -65 39 -113 95 -118 56 -4 71
5 169 102 l102 100 94 -95 c108 -108 138 -124 197 -100 52 21 77 64 70 118 -5
35 -19 54 -104 139 l-98 98 92 92 c50 51 96 103 102 115 27 54 0 126 -56 150
-62 25 -89 12 -193 -92 -52 -52 -99 -95 -105 -95 -6 0 -49 39 -95 86 -115 116
-150 132 -211 99z"/>
<path d="M3494 2296 c-44 -19 -64 -53 -64 -105 0 -42 4 -48 100 -146 l101
-102 -87 -84 c-47 -46 -92 -96 -100 -111 -33 -64 -5 -146 59 -167 57 -19 93 0
197 104 l95 95 95 -95 c53 -53 108 -99 126 -105 79 -26 164 61 139 142 -4 12
-51 67 -103 121 l-96 97 96 98 c52 53 99 108 103 120 17 56 -24 129 -83 147
-48 14 -84 -6 -184 -103 l-99 -96 -92 92 c-83 82 -127 113 -160 112 -7 -1 -26
-7 -43 -14z"/>
<path d="M2905 1294 c-280 -41 -514 -142 -676 -292 -68 -62 -86 -105 -69 -157
15 -46 57 -75 109 -75 35 0 49 7 97 51 159 144 357 224 614 248 328 31 639
-58 843 -239 61 -54 73 -60 111 -60 79 0 131 71 106 144 -28 85 -229 227 -430
303 -148 56 -260 75 -475 78 -110 2 -213 1 -230 -1z"/>
</g>
</svg>
